# xmcd
#
# Track frame offsets:
#	150
#	14569
#	28524
#	43475
#	57511
#	72448
#	86905
#	101060
#	114744
#	127493
#	141528
#	155615
#	168785
#	183440
#	196462
#	210764
#
# Disc length: 3005 seconds
#
# Revision: 1
# Processed by: cddbd v1.5.2PL0 Copyright (c) Steve Scherf et al.
# Submitted via: audiograbber 1.83.01
#
DISCID=f90bbb10
DTITLE=Doris Day - The Great Doris Day CD 3
DYEAR=2000
DGENRE=Blues
TTITLE0=Sentimental Journey
TTITLE1=Let's Be Buddies
TTITLE2=My Dreams Are Getting Better All The Time
TTITLE3=Between Friends
TTITLE4=I 'Aint Hep To That Step But I'll Dig It
TTITLE5=Amapola
TTITLE6=Make Up My Mind
TTITLE7=Booglie Wooglie Piggy
TTITLE8=Three At A Table For Two
TTITLE9=I'll Always Be With You
TTITLE10=Alexander The Swoose (Half Swan, Half Goose)
TTITLE11=Keep Cool, Fool
TTITLE12=Easy As Pie
TTITLE13=Barbara Allen
TTITLE14=A Red Kiss On A Blue Letter
TTITLE15=He's Home For A Little While
EXTD=
EXTT0=
EXTT1=
EXTT2=
EXTT3=
EXTT4=
EXTT5=
EXTT6=
EXTT7=
EXTT8=
EXTT9=
EXTT10=
EXTT11=
EXTT12=
EXTT13=
EXTT14=
EXTT15=
PLAYORDER=
